<?xml version="1.0" standalone="no"?>
<!DOCTYPE svg PUBLIC "-//W3C//DTD SVG 20010904//EN"
 "http://www.w3.org/TR/2001/REC-SVG-20010904/DTD/svg10.dtd">
<svg version="1.0" xmlns="http://www.w3.org/2000/svg"
 width="1280.000000pt" height="640.000000pt" viewBox="0 0 1280.000000 640.000000"
 preserveAspectRatio="xMidYMid meet">
<metadata>
Created by potrace 1.15, written by Peter Selinger 2001-2017
</metadata>
<g transform="translate(0.000000,640.000000) scale(0.100000,-0.100000)"
fill="#000000" stroke="none">
<path d="M8025 5754 c-660 -20 -854 -28 -1115 -50 -523 -42 -830 -86 -1127
-159 -475 -118 -957 -347 -1673 -795 -179 -112 -377 -235 -440 -273 -155 -94
-443 -235 -565 -276 -55 -19 -105 -38 -111 -42 -5 -5 -19 -6 -30 -3 -34 9
-483 -73 -834 -152 -403 -91 -1035 -262 -1277 -345 -274 -94 -486 -217 -574
-334 -63 -84 -54 -91 57 -46 86 35 348 121 366 121 7 -1 -52 -23 -132 -50 -80
-26 -185 -66 -235 -87 l-90 -39 -48 -94 c-57 -114 -77 -195 -59 -243 11 -28
10 -33 -4 -42 -41 -24 -76 -60 -100 -100 -24 -41 -25 -50 -29 -253 -4 -200 -3
-212 16 -236 14 -17 30 -26 50 -26 28 0 29 -2 29 -47 0 -104 21 -217 53 -286
29 -61 34 -67 59 -64 31 4 36 -4 13 -23 -14 -12 -42 -5 -117 28 -13 6 3 -60
27 -114 67 -152 211 -217 540 -244 72 -6 166 -15 210 -20 52 -6 82 -5 86 2 3
5 16 8 29 6 18 -2 27 -18 49 -88 117 -360 425 -633 804 -711 85 -17 126 -20
242 -16 170 6 294 35 430 101 329 160 549 470 597 839 6 51 12 93 14 95 1 2
48 -13 105 -33 112 -39 135 -59 130 -111 -4 -53 17 -114 44 -126 18 -8 177 -6
597 6 1335 38 2732 78 4053 115 1654 47 1591 44 1615 66 15 13 50 131 50 166
0 5 -19 10 -42 11 -40 1 -40 2 -9 5 26 4 65 -9 162 -54 l127 -58 12 -60 c39
-196 156 -403 313 -551 364 -346 909 -389 1334 -107 196 129 365 367 426 598
l24 90 59 23 c32 13 117 34 188 47 182 34 192 41 343 250 79 109 123 179 123
195 0 14 -7 45 -16 69 -16 46 -15 54 16 286 12 93 13 329 0 394 -14 73 -32
108 -89 167 -63 66 -107 152 -116 229 -4 33 -13 73 -21 88 -11 23 -11 39 -2
80 7 34 9 129 5 275 -5 204 -7 225 -25 245 -15 17 -21 43 -26 112 -4 52 -15
108 -26 133 -29 64 -123 157 -236 232 -119 79 -207 146 -654 500 -185 146
-351 277 -370 291 l-35 26 37 41 c59 65 72 90 59 106 -13 16 -86 29 -251 46
-58 6 -152 22 -210 35 -141 33 -669 125 -714 125 -20 0 -159 13 -308 29 -368
40 -466 48 -793 67 -268 15 -778 24 -990 18z m-276 -129 c-7 -7 -330 -8 -337
-1 -3 3 73 6 168 6 95 0 171 -2 169 -5z m829 -2 c-42 -2 -114 -2 -160 0 -46 1
-11 3 77 3 88 0 125 -2 83 -3z m-1270 -10 c-27 -2 -69 -2 -95 0 -27 2 -5 3 47
3 52 0 74 -1 48 -3z m1555 0 c-23 -2 -64 -2 -90 0 -26 2 -7 3 42 3 50 0 71 -1
48 -3z m-1755 -10 c-21 -2 -55 -2 -75 0 -21 2 -4 4 37 4 41 0 58 -2 38 -4z
m1940 0 c-15 -2 -42 -2 -60 0 -18 2 -6 4 27 4 33 0 48 -2 33 -4z m-2090 -10
c-15 -2 -42 -2 -60 0 -18 2 -6 4 27 4 33 0 48 -2 33 -4z m2220 0 c-10 -2 -26
-2 -35 0 -10 3 -2 5 17 5 19 0 27 -2 18 -5z m-2340 -10 c-16 -2 -40 -2 -55 0
-16 2 -3 4 27 4 30 0 43 -2 28 -4z m639 -70 c-2 -16 -4 -3 -4 27 0 30 2 43 4
28 2 -16 2 -40 0 -55z m1896 70 c-13 -2 -35 -2 -50 0 -16 2 -5 4 22 4 28 0 40
-2 28 -4z m-2650 -10 c-13 -2 -33 -2 -45 0 -13 2 -3 4 22 4 25 0 35 -2 23 -4z
m2775 0 c-16 -2 -40 -2 -55 0 -16 2 -3 4 27 4 30 0 43 -2 28 -4z m-2865 -10
c-13 -2 -33 -2 -45 0 -13 2 -3 4 22 4 25 0 35 -2 23 -4z m2955 0 c-10 -2 -28
-2 -40 0 -13 2 -5 4 17 4 22 1 32 -1 23 -4z m-3068 -14 c-25 -4 -58 -7 -75 -7
-25 1 -24 2 10 8 22 4 56 7 75 7 31 0 30 0 -10 -8z m3185 1 c42 -11 1 -11 -50
-1 -34 7 -35 9 -10 9 17 0 44 -4 60 -8z m-3307 -17 c-10 -2 -26 -2 -35 0 -10
3 -2 5 17 5 19 0 27 -2 18 -5z m3467 -17 c50 -14 101 -29 115 -36 l25 -11 -25
6 c-95 22 -241 64 -225 65 11 0 61 -11 110 -24z m-3537 7 c-10 -2 -26 -2 -35
0 -10 3 -2 5 17 5 19 0 27 -2 18 -5z m-83 -13 c-16 -4 -41 -8 -55 -8 -22 0
-22 1 5 8 17 4 41 8 55 8 22 0 22 -1 -5 -8z m-92 -17 c-7 -2 -21 -2 -30 0 -10
3 -4 5 12 5 17 0 24 -2 18 -5z m-60 -10 c-7 -2 -21 -2 -30 0 -10 3 -4 5 12 5
17 0 24 -2 18 -5z m-56 -9 c-3 -3 -12 -4 -19 -1 -8 3 -5 6 6 6 11 1 17 -2 13
-5z m1430 -41 c-3 -10 -5 -2 -5 17 0 19 2 27 5 18 2 -10 2 -26 0 -35z m-1474
30 c-7 -2 -19 -2 -25 0 -7 3 -2 5 12 5 14 0 19 -2 13 -5z m4047 -3 c8 -5 11
-10 5 -10 -5 0 -17 5 -25 10 -8 5 -10 10 -5 10 6 0 17 -5 25 -10z m-4093 -6
c-3 -3 -12 -4 -19 -1 -8 3 -5 6 6 6 11 1 17 -2 13 -5z m-44 -11 c-7 -2 -19 -2
-25 0 -7 3 -2 5 12 5 14 0 19 -2 13 -5z m4187 -3 c8 -5 11 -10 5 -10 -5 0 -17
5 -25 10 -8 5 -10 10 -5 10 6 0 17 -5 25 -10z m-4233 -6 c-3 -3 -12 -4 -19 -1
-8 3 -5 6 6 6 11 1 17 -2 13 -5z m-40 -10 c-3 -3 -12 -4 -19 -1 -8 3 -5 6 6 6
11 1 17 -2 13 -5z m4333 -9 c17 -9 30 -18 30 -21 0 -4 -59 23 -69 32 -10 9 13
3 39 -11z m-4373 -1 c-3 -3 -12 -4 -19 -1 -8 3 -5 6 6 6 11 1 17 -2 13 -5z
m-40 -10 c-3 -3 -12 -4 -19 -1 -8 3 -5 6 6 6 11 1 17 -2 13 -5z m1718 -69 c-4
-36 -10 -64 -12 -61 -3 2 -2 34 2 71 4 36 10 64 12 61 3 -2 2 -34 -2 -71z
m-1800 45 c-11 -5 -27 -9 -35 -9 -9 0 -8 4 5 9 11 5 27 9 35 9 9 0 8 -4 -5 -9z
m4711 -102 c44 -31 98 -73 120 -93 21 -20 -8 0 -66 43 -58 44 -129 94 -157
111 -29 18 -53 35 -53 38 0 7 67 -35 156 -99z m-4766 88 c0 -6 -93 -37 -97
-32 -2 2 15 11 39 19 47 17 58 19 58 13z m-120 -46 c-8 -5 -19 -10 -25 -10 -5
0 -3 5 5 10 8 5 20 10 25 10 6 0 3 -5 -5 -10z m-50 -20 c-8 -5 -19 -10 -25
-10 -5 0 -3 5 5 10 8 5 20 10 25 10 6 0 3 -5 -5 -10z m-60 -25 c-14 -8 -29
-14 -35 -14 -5 0 1 6 15 14 14 8 30 14 35 14 6 0 -1 -6 -15 -14z m-51 -19
c-10 -9 -349 -176 -349 -171 0 6 331 174 344 174 5 1 7 -1 5 -3z m2118 -43
c-3 -10 -5 -2 -5 17 0 19 2 27 5 18 2 -10 2 -26 0 -35z m-10 -65 c-3 -7 -5 -2
-5 12 0 14 2 19 5 13 2 -7 2 -19 0 -25z m3293 -180 c68 -79 124 -166 134 -208
3 -14 -3 -6 -14 17 -36 80 -104 168 -209 273 -74 72 -86 87 -41 49 36 -31 94
-90 130 -131z m-3303 115 c-3 -10 -5 -4 -5 12 0 17 2 24 5 18 2 -7 2 -21 0
-30z m-2457 -8 c0 -2 -22 -16 -50 -30 -27 -14 -50 -23 -50 -20 0 2 21 16 48
29 53 28 52 28 52 21z m2447 -62 c-3 -10 -5 -2 -5 17 0 19 2 27 5 18 2 -10 2
-26 0 -35z m-2559 2 c-3 -3 -81 -49 -174 -102 -505 -286 -799 -537 -943 -803
-22 -41 -41 -70 -41 -65 0 18 84 159 133 222 156 203 446 427 851 657 157 89
188 105 174 91z m2549 -62 c-3 -10 -5 -4 -5 12 0 17 2 24 5 18 2 -7 2 -21 0
-30z m-10 -60 c-3 -10 -5 -4 -5 12 0 17 2 24 5 18 2 -7 2 -21 0 -30z m-12 -88
c-4 -31 -9 -54 -12 -51 -3 2 -1 30 2 61 4 31 9 54 12 51 3 -2 1 -30 -2 -61z
m-18 -102 c-3 -10 -5 -4 -5 12 0 17 2 24 5 18 2 -7 2 -21 0 -30z m3510 5 c-3
-8 -6 -5 -6 6 -1 11 2 17 5 13 3 -3 4 -12 1 -19z m10 -55 c-3 -10 -5 -4 -5 12
0 17 2 24 5 18 2 -7 2 -21 0 -30z m-3530 -10 c-3 -10 -5 -4 -5 12 0 17 2 24 5
18 2 -7 2 -21 0 -30z m-12 -88 c-4 -31 -9 -54 -12 -51 -3 2 -1 30 2 61 4 31 9
54 12 51 3 -2 1 -30 -2 -61z m3542 -42 c-3 -10 -5 -2 -5 17 0 19 2 27 5 18 2
-10 2 -26 0 -35z m-3560 -60 c-3 -10 -5 -4 -5 12 0 17 2 24 5 18 2 -7 2 -21 0
-30z m3550 5 c-3 -7 -5 -2 -5 12 0 14 2 19 5 13 2 -7 2 -19 0 -25z m-10 -50
c-3 -7 -5 -2 -5 12 0 14 2 19 5 13 2 -7 2 -19 0 -25z m-3550 -35 c-3 -10 -5
-4 -5 12 0 17 2 24 5 18 2 -7 2 -21 0 -30z m3540 -20 c-3 -10 -5 -4 -5 12 0
17 2 24 5 18 2 -7 2 -21 0 -30z m-3550 -50 c-3 -10 -5 -4 -5 12 0 17 2 24 5
18 2 -7 2 -21 0 -30z m3540 -10 c-3 -10 -5 -4 -5 12 0 17 2 24 5 18 2 -7 2
-21 0 -30z m-3550 -70 c-3 -10 -5 -2 -5 17 0 19 2 27 5 18 2 -10 2 -26 0 -35z
m3540 5 c-3 -7 -5 -2 -5 12 0 14 2 19 5 13 2 -7 2 -19 0 -25z m-3550 -80 c-2
-13 -4 -5 -4 17 -1 22 1 32 4 23 2 -10 2 -28 0 -40z m3540 15 c-3 -10 -5 -4
-5 12 0 17 2 24 5 18 2 -7 2 -21 0 -30z m-10 -55 c-3 -7 -5 -2 -5 12 0 14 2
19 5 13 2 -7 2 -19 0 -25z m-3540 -55 c-2 -16 -4 -5 -4 22 0 28 2 40 4 28 2
-13 2 -35 0 -50z m3530 15 c-3 -8 -6 -5 -6 6 -1 11 2 17 5 13 3 -3 4 -12 1
-19z m-10 -40 c-3 -8 -6 -5 -6 6 -1 11 2 17 5 13 3 -3 4 -12 1 -19z m-7117
-63 c-10 -33 -19 -53 -19 -44 -1 18 30 112 35 107 2 -2 -5 -31 -16 -63z m3587
-7 c-2 -13 -4 -3 -4 22 0 25 2 35 4 23 2 -13 2 -33 0 -45z m3520 30 c-3 -8 -6
-5 -6 6 -1 11 2 17 5 13 3 -3 4 -12 1 -19z m-3530 -135 c-2 -16 -4 -5 -4 22 0
28 2 40 4 28 2 -13 2 -35 0 -50z m3493 20 c-11 -17 -11 -17 -6 0 3 10 6 24 7
30 0 9 2 9 5 0 3 -7 0 -20 -6 -30z m-7105 -43 c-8 -25 -12 -33 -10 -17 5 23 2
27 -17 28 -22 1 -22 1 2 8 16 4 26 16 29 31 3 14 6 18 8 10 2 -8 -3 -35 -12
-60z m6472 39 c33 -12 73 -47 73 -64 0 -11 -355 -43 -365 -33 -11 10 43 74 75
90 40 21 171 25 217 7z m614 -46 c-12 -20 -14 -14 -5 12 4 9 9 14 11 11 3 -2
0 -13 -6 -23z m-7168 10 c-7 -2 -21 -2 -30 0 -10 3 -4 5 12 5 17 0 24 -2 18
-5z m-95 -10 c-10 -2 -26 -2 -35 0 -10 3 -2 5 17 5 19 0 27 -2 18 -5z m-90
-10 c-10 -2 -26 -2 -35 0 -10 3 -2 5 17 5 19 0 27 -2 18 -5z m-90 -10 c-10 -2
-28 -2 -40 0 -13 2 -5 4 17 4 22 1 32 -1 23 -4z m-90 -10 c-10 -2 -28 -2 -40
0 -13 2 -5 4 17 4 22 1 32 -1 23 -4z m4049 -60 c-2 -16 -4 -5 -4 22 0 28 2 40
4 28 2 -13 2 -35 0 -50z m3459 30 c-8 -15 -15 -25 -16 -21 0 12 23 58 27 54 3
-2 -2 -17 -11 -33z m-7608 20 c-10 -2 -28 -2 -40 0 -13 2 -5 4 17 4 22 1 32
-1 23 -4z m-333 -12 c-3 -6 14 -12 37 -14 40 -3 40 -4 -11 -5 -46 -2 -52 0
-41 13 14 17 25 20 15 6z m243 2 c-10 -2 -28 -2 -40 0 -13 2 -5 4 17 4 22 1
32 -1 23 -4z m619 -15 c-3 -8 -6 -5 -6 6 -1 11 2 17 5 13 3 -3 4 -12 1 -19z
m-709 5 c-10 -2 -28 -2 -40 0 -13 2 -5 4 17 4 22 1 32 -1 23 -4z m7752 -82
c-28 -56 -35 -52 -8 4 12 24 23 43 26 41 2 -2 -6 -22 -18 -45z m-7063 7 c-3
-8 -6 -5 -6 6 -1 11 2 17 5 13 3 -3 4 -12 1 -19z m-10 -40 c-3 -8 -6 -5 -6 6
-1 11 2 17 5 13 3 -3 4 -12 1 -19z m3640 -65 c-2 -16 -4 -3 -4 27 0 30 2 43 4
28 2 -16 2 -40 0 -55z m2963 55 c-1 -18 -30 -52 -64 -74 -61 -38 -225 -14
-288 43 -29 26 -22 32 40 36 155 9 312 7 312 -5z m-6613 -30 c-3 -8 -6 -5 -6
6 -1 11 2 17 5 13 3 -3 4 -12 1 -19z m7027 -25 c-96 -167 -237 -336 -440 -530
-170 -161 -283 -293 -365 -427 -57 -94 -79 -118 -30 -33 83 144 160 237 371
447 250 249 362 382 455 543 15 26 29 47 32 47 3 0 -7 -21 -23 -47z m-3785 6
c21 -11 42 -29 48 -39 11 -16 7 -19 -30 -24 -75 -10 -316 -28 -327 -24 -17 5
36 73 72 91 51 25 189 23 237 -4z m-3252 -31 c-3 -8 -6 -5 -6 6 -1 11 2 17 5
13 3 -3 4 -12 1 -19z m-10 -60 c-3 -7 -5 -2 -5 12 0 14 2 19 5 13 2 -7 2 -19
0 -25z m3660 -80 c-2 -18 -4 -4 -4 32 0 36 2 50 4 33 2 -18 2 -48 0 -65z
m-3670 30 c-3 -7 -5 -2 -5 12 0 14 2 19 5 13 2 -7 2 -19 0 -25z m-2648 -2 c-7
-7 -171 -47 -176 -43 -2 3 31 14 74 25 78 20 110 26 102 18z m11468 -53 c-3
-10 -5 -2 -5 17 0 19 2 27 5 18 2 -10 2 -26 0 -35z m-11280 -15 c-27 -46 -87
-125 -87 -114 0 3 15 25 33 49 17 23 41 59 52 79 10 21 21 35 23 33 3 -2 -7
-23 -21 -47z m2450 5 c-3 -10 -5 -4 -5 12 0 17 2 24 5 18 2 -7 2 -21 0 -30z
m3338 -33 c-26 -50 -69 -70 -151 -70 -39 0 -91 7 -116 15 -44 16 -107 69 -95
81 8 9 371 20 375 12 2 -4 -4 -21 -13 -38z m5455 -33 c-17 -24 -44 -53 -58
-64 -35 -26 -93 -56 -98 -50 -2 2 14 12 37 22 40 18 139 116 139 137 0 6 3 9
6 5 3 -3 -8 -26 -26 -50z m-8803 -9 c-2 -13 -4 -5 -4 17 -1 22 1 32 4 23 2
-10 2 -28 0 -40z m3680 -510 c-1 -95 -3 -20 -3 167 0 187 2 265 3 173 2 -92 2
-245 0 -340z m-3690 420 c-2 -13 -4 -3 -4 22 0 25 2 35 4 23 2 -13 2 -33 0
-45z m8633 -28 c-8 -5 -19 -10 -25 -10 -5 0 -3 5 5 10 8 5 20 10 25 10 6 0 3
-5 -5 -10z m-8643 -132 c-2 -24 -4 -5 -4 42 0 47 2 66 4 43 2 -24 2 -62 0 -85z
m8558 97 c-27 -13 -54 -24 -60 -24 -5 1 13 11 40 24 28 13 55 24 60 24 6 -1
-12 -11 -40 -24z m-100 -41 c-16 -7 -69 -32 -117 -53 l-87 -40 -4 -73 -3 -73
-2 71 c-1 50 2 75 11 83 17 13 208 100 222 100 6 0 -3 -7 -20 -15z m-11005
-139 c61 -48 110 -88 110 -91 0 -3 -56 38 -124 91 -68 52 -129 95 -135 95 -7
0 -24 -8 -39 -17 -36 -23 -21 -6 20 22 32 22 33 22 46 4 7 -10 62 -57 122
-104z m2537 -57 c-3 -8 -6 -5 -6 6 -1 11 2 17 5 13 3 -3 4 -12 1 -19z m-2337
-105 c0 -2 -18 10 -40 27 -22 17 -40 34 -40 37 0 2 18 -10 40 -27 22 -17 40
-34 40 -37z m31 -20 c13 -16 12 -17 -3 -4 -10 7 -18 15 -18 17 0 8 8 3 21 -13z
m2316 -115 c-2 -24 -4 -7 -4 37 0 44 2 63 4 43 2 -21 2 -57 0 -80z m10 -125
c-2 -16 -4 -5 -4 22 0 28 2 40 4 28 2 -13 2 -35 0 -50z m3704 -96 c0 -65 -2
-121 -5 -124 -3 -4 -6 51 -6 122 0 71 2 126 5 124 2 -3 5 -58 6 -122z m2507
48 c-6 -14 -13 -23 -15 -21 -5 5 15 46 22 46 3 0 -1 -11 -7 -25z m-6201 -47
c-2 -13 -4 -5 -4 17 -1 22 1 32 4 23 2 -10 2 -28 0 -40z m6160 -49 c-13 -30
-43 -112 -67 -182 -23 -71 -44 -127 -46 -124 -5 5 76 246 106 315 12 29 24 51
26 49 3 -2 -6 -28 -19 -58z m-6150 -31 c-2 -13 -4 -5 -4 17 -1 22 1 32 4 23 2
-10 2 -28 0 -40z m10 -75 c-3 -10 -5 -2 -5 17 0 19 2 27 5 18 2 -10 2 -26 0
-35z m10 -60 c-3 -10 -5 -4 -5 12 0 17 2 24 5 18 2 -7 2 -21 0 -30z m3670
-110 c-2 -27 -3 -5 -3 47 0 52 1 74 3 48 2 -27 2 -69 0 -95z m-7067 57 c29
-31 67 -118 76 -175 3 -16 -8 8 -25 55 -22 62 -40 94 -65 118 -20 17 -31 32
-25 32 6 0 24 -14 39 -30z m3407 -7 c-3 -10 -5 -4 -5 12 0 17 2 24 5 18 2 -7
2 -21 0 -30z m10 -55 c-3 -7 -5 -2 -5 12 0 14 2 19 5 13 2 -7 2 -19 0 -25z
m10 -50 c-3 -7 -5 -2 -5 12 0 14 2 19 5 13 2 -7 2 -19 0 -25z m5964 -42 c-11
-25 -22 -46 -25 -46 -3 0 5 23 16 50 11 28 23 49 25 47 2 -2 -5 -25 -16 -51z
m-5954 -8 c-3 -7 -5 -2 -5 12 0 14 2 19 5 13 2 -7 2 -19 0 -25z m3640 -150
c-2 -29 -3 -8 -3 47 0 55 1 79 3 53 2 -26 2 -71 0 -100z m-3619 67 c0 -16 -2
-15 -8 5 -4 14 -8 34 -8 45 0 16 2 15 8 -5 4 -14 8 -34 8 -45z m5846 -50 c-14
-19 -53 -53 -86 -75 -33 -22 -56 -40 -52 -41 5 -1 -2 -5 -16 -9 -14 -4 -83 -8
-155 -7 l-130 1 125 5 c109 5 132 9 180 33 30 15 77 50 105 78 27 27 51 50 53
50 1 0 -9 -16 -24 -35z m-5837 3 c-3 -8 -6 -5 -6 6 -1 11 2 17 5 13 3 -3 4
-12 1 -19z m-3380 -30 c-3 -7 -5 -2 -5 12 0 14 2 19 5 13 2 -7 2 -19 0 -25z
m3390 -10 c-3 -8 -6 -5 -6 6 -1 11 2 17 5 13 3 -3 4 -12 1 -19z m10 -40 c-3
-8 -6 -5 -6 6 -1 11 2 17 5 13 3 -3 4 -12 1 -19z m10 -40 c-3 -8 -6 -5 -6 6
-1 11 2 17 5 13 3 -3 4 -12 1 -19z m3621 -71 c22 -3 21 -4 -8 -6 l-36 -1 6 43
5 42 3 -37 c3 -31 7 -37 30 -41z m2275 66 c-40 -2 -106 -2 -145 0 -40 1 -8 3
72 3 80 0 112 -2 73 -3z m-5886 -35 c-3 -8 -6 -5 -6 6 -1 11 2 17 5 13 3 -3 4
-12 1 -19z m5261 15 c-38 -2 -98 -2 -135 0 -38 2 -7 3 67 3 74 0 105 -1 68 -3z
m-315 -10 c-35 -2 -91 -2 -125 0 -35 2 -7 3 62 3 69 0 97 -1 63 -3z m-305 -10
c-27 -2 -69 -2 -95 0 -27 2 -5 3 47 3 52 0 74 -1 48 -3z m-355 -10 c-24 -2
-62 -2 -85 0 -24 2 -5 4 42 4 47 0 66 -2 43 -4z m-4264 -53 c0 -9 -4 -8 -9 5
-5 11 -9 27 -9 35 0 9 4 8 9 -5 5 -11 9 -27 9 -35z m3999 43 c-15 -2 -42 -2
-60 0 -18 2 -6 4 27 4 33 0 48 -2 33 -4z m-625 -20 c-7 -2 -19 -2 -25 0 -7 3
-2 5 12 5 14 0 19 -2 13 -5z m-3366 -65 c-3 -8 -6 -5 -6 6 -1 11 2 17 5 13 3
-3 4 -12 1 -19z"/>
</g>
</svg>
